<?xml version="1.0" standalone="no"?>
<!DOCTYPE svg PUBLIC "-//W3C//DTD SVG 1.0//EN" "http://www.w3.org/TR/2001/REC-SVG-20010904/DTD/svg10.dtd">
<svg xmlns="http://www.w3.org/2000/svg" xmlns:xlink="http://www.w3.org/1999/xlink" id="body_1" width="8001" height="6000">

<g transform="matrix(4 0 0 4 1 -0)">
	<g transform="matrix(0.1 0 -0 -0.1 0 1500)">
        <path d="M9714 11966C 9383 11842 9249 11778 9111 11683C 9076 11659 9046 11640 9045 11642C 9043 11644 9045 11678 9050 11718C 9060 11812 9055 11830 9020 11830C 8988 11830 8960 11809 8840 11695C 8792 11650 8733 11601 8707 11586C 8663 11560 8656 11559 8577 11565C 8424 11578 8313 11533 8190 11410C 8131 11351 8107 11318 8080 11258C 8047 11185 8044 11182 8006 11176C 7984 11172 7905 11175 7830 11181C 7650 11198 7630 11192 7508 11091C 7290 10910 6766 10393 6733 10325C 6722 10303 6703 10254 6690 10215C 6639 10056 6604 10014 6188 9615C 6095 9525 5996 9420 5963 9375C 5807 9161 5718 8905 5650 8475C 5633 8365 5604 8184 5586 8072L5586 8072L5553 7869L5622 7735C 5777 7433 5864 7196 5919 6923C 5945 6795 5946 6758 5920 6735C 5905 6722 5890 6719 5859 6723L5859 6723L5817 6728L5823 6582C 5826 6501 5834 6417 5841 6395C 5857 6340 5930 6166 6113 5755C 6290 5355 6348 5216 6435 4971C 6497 4798 6497 4797 6535 4785C 6612 4758 6649 4700 6674 4570C 6735 4243 6900 4007 7130 3919C 7176 3901 7216 3896 7375 3890C 7598 3881 7643 3869 7743 3788C 7862 3691 8026 3631 8188 3626L8188 3626L8275 3623L8536 3488C 8679 3413 8849 3320 8912 3281C 8975 3242 9037 3210 9049 3210C 9060 3210 9079 3219 9091 3231C 9102 3242 9115 3249 9118 3245C 9122 3241 9124 3209 9122 3173L9122 3173L9120 3108L9157 3114C 9178 3117 9254 3127 9325 3135C 9792 3187 10154 3178 10420 3107C 10494 3087 10511 3086 10545 3096C 10598 3112 10705 3113 10772 3098C 10801 3091 10880 3058 10948 3024C 11073 2961 11131 2943 11171 2955C 11190 2961 11192 2968 11187 3006C 11183 3049 11183 3049 11228 3070C 11308 3108 11538 3158 11583 3146C 11598 3143 11630 3113 11660 3075C 11708 3015 11752 2980 11780 2980C 11786 2980 11788 2999 11785 3033C 11781 3062 11785 3107 11792 3135C 11811 3207 11844 3223 11968 3217L11968 3217L12061 3213L12055 3279C 12052 3321 12055 3357 12063 3377C 12079 3419 12383 3736 12455 3785L12455 3785L12510 3824L12576 3752C 12612 3712 12646 3680 12652 3680C 12666 3680 12654 3743 12629 3798C 12619 3822 12588 3867 12560 3897C 12533 3927 12510 3955 12510 3960C 12510 3974 12535 3987 12615 4014C 12719 4048 12774 4048 12823 4014L12823 4014L12861 3988L12845 4020C 12806 4095 12849 4131 12988 4140C 13041 4143 13094 4151 13105 4157C 13155 4185 13181 4233 13195 4327C 13201 4362 13222 4394 13316 4507C 13605 4856 13816 5210 14004 5663C 14097 5887 14097 5885 14020 5824C 13937 5759 13842 5654 13774 5553C 13705 5449 13688 5439 13611 5461C 13601 5464 13589 5442 13571 5383C 13557 5338 13543 5299 13540 5297C 13537 5294 13537 5323 13538 5362L13538 5362L13542 5433L13443 5356C 12886 4922 12392 4564 12012 4316C 11842 4206 11810 4190 11760 4190C 11718 4190 11679 4217 11653 4264C 11643 4282 11638 4280 11584 4233C 11513 4173 11499 4167 11470 4187C 11452 4200 11449 4209 11453 4241L11453 4241L11458 4280L11387 4280C 11347 4280 11310 4276 11304 4272C 11298 4268 11283 4246 11271 4222C 11259 4199 11246 4180 11242 4180C 11238 4180 11226 4196 11216 4215C 11192 4260 11182 4259 11175 4212C 11162 4136 11152 4096 11151 4116C 11150 4128 11143 4143 11135 4150C 11122 4161 11115 4159 11094 4139C 11079 4126 11064 4104 11059 4091C 11050 4069 11047 4071 11001 4136C 10974 4174 10942 4214 10930 4225L10930 4225L10907 4245L10915 4225C 10949 4139 10939 4069 10900 4117C 10882 4139 10882 4139 10875 4075C 10872 4039 10864 4010 10859 4010C 10854 4010 10821 3983 10786 3951C 10716 3885 10723 3888 10540 3870C 10429 3860 10208 3820 10160 3802C 10144 3796 10105 3801 10036 3817C 9744 3887 9427 3939 9125 3965C 8911 3983 8809 4001 8681 4042C 8567 4078 8466 4123 8348 4191L8348 4191L8259 4242L8287 4260C 8346 4296 8378 4350 8365 4390C 8359 4410 8358 4410 8340 4387C 8317 4357 8286 4345 8195 4326L8195 4326L8125 4311L8010 4423C 7947 4485 7729 4691 7525 4881C 7130 5250 6815 5565 6685 5721C 6587 5839 6538 5932 6422 6215C 6295 6526 6307 6505 6275 6470C 6265 6459 6249 6450 6239 6450C 6215 6450 6173 6503 6159 6550C 6137 6624 6184 6679 6246 6651C 6259 6645 6270 6644 6270 6649C 6270 6653 6250 6798 6225 6970C 6200 7142 6180 7297 6180 7314C 6180 7344 6188 7365 6263 7535C 6298 7615 6298 7615 6354 8135C 6415 8698 6428 8795 6465 8941C 6558 9309 6736 9638 7016 9960C 7207 10181 7725 10669 7860 10756C 7970 10828 8393 11079 8580 11183C 8905 11365 9185 11468 9495 11521C 9586 11537 9683 11543 9900 11548C 10226 11556 10236 11558 10278 11640C 10296 11677 10300 11700 10300 11786L10300 11786L10300 11888L10257 11883C 10204 11877 10180 11888 10085 11964C 10047 11995 9997 12026 9974 12034C 9933 12048 9932 12047 9714 11966zM6303 6241C 6316 6225 6342 6176 6360 6133C 6378 6090 6406 6028 6424 5995C 6441 5962 6457 5931 6459 5927C 6461 5922 6445 5927 6424 5938C 6361 5970 6339 6001 6325 6078C 6317 6117 6299 6172 6283 6201C 6268 6231 6254 6258 6252 6263C 6243 6283 6281 6266 6303 6241zM6202 6169C 6218 6123 6229 6082 6227 6078C 6223 6065 6120 6200 6120 6219C 6120 6239 6147 6262 6165 6257C 6171 6255 6187 6216 6202 6169z" stroke="none" fill="#FF0000" fill-rule="nonzero" />
        <path d="M11287 11751L11168 11745L11137 11709C 11119 11690 11101 11666 11095 11657C 11086 11641 11081 11641 11035 11655C 10967 11676 10803 11666 10742 11638C 10645 11592 10615 11473 10675 11374C 10736 11276 10903 11172 11064 11130C 11106 11119 11192 11105 11253 11099C 11379 11086 11372 11089 11570 10971C 11791 10840 12113 10623 12564 10300C 12789 10139 12988 10001 13007 9994C 13053 9974 13106 9985 13196 10031C 13238 10053 13275 10070 13279 10070C 13283 10070 13287 10028 13287 9978C 13288 9864 13306 9787 13369 9620C 13427 9468 13462 9413 13538 9357C 13686 9246 13730 9186 13751 9066C 13763 8994 13759 8934 13734 8833L13734 8833L13718 8771L13780 8652C 13870 8478 13993 8323 14101 8249C 14119 8236 14125 8221 14131 8166C 14142 8061 14185 8031 14241 8091C 14275 8128 14275 8133 14253 7972C 14235 7827 14231 7531 14248 7485C 14257 7459 14258 7458 14259 7478C 14262 7542 14293 7810 14311 7915C 14332 8045 14388 8269 14419 8350C 14429 8377 14434 8400 14428 8400C 14414 8400 14371 8353 14333 8297C 14314 8269 14293 8250 14282 8250C 14265 8250 14263 8263 14257 8433C 14253 8533 14244 8685 14235 8770C 14213 8995 14154 9445 14145 9461C 14141 9469 13937 9795 13692 10187C 13346 10742 13231 10918 13172 10986C 13019 11160 12759 11358 12520 11484C 12323 11588 12003 11703 11820 11736C 11730 11752 11450 11760 11287 11751z" stroke="none" fill="#FF0000" fill-rule="nonzero" />
        <path d="M11613 9209C 10956 9146 10370 8675 10160 8041C 9981 7503 10074 6923 10412 6473C 10487 6372 10654 6204 10753 6129C 10926 5998 11148 5890 11355 5837C 11757 5734 12155 5777 12548 5966L12548 5966L12660 6020L12660 6640L12660 7260L12210 7260L11760 7260L11760 7140L11760 7020L12085 7020L12410 7020L12410 6591L12410 6162L12303 6119C 12125 6050 11999 6027 11780 6027C 11626 6027 11578 6030 11493 6048C 11201 6111 10972 6237 10754 6455C 10581 6628 10461 6819 10391 7032C 10304 7297 10298 7636 10376 7904C 10531 8440 10980 8851 11525 8957C 11661 8983 11932 8981 12067 8952C 12194 8924 12319 8881 12434 8824C 12483 8800 12524 8781 12525 8782C 12526 8784 12557 8828 12594 8882L12594 8882L12660 8978L12618 9003C 12547 9044 12401 9106 12300 9138C 12078 9208 11849 9232 11613 9209z" stroke="none" fill="#FF0000" fill-rule="nonzero" />
        <path d="M7330 9070L7330 8950L7495 8950L7660 8950L7660 7510L7660 6070L7495 6070L7330 6070L7330 5950L7330 5830L8530 5830L9730 5830L9730 6200L9730 6571L9613 6568L9495 6565L9492 6318L9490 6070L8695 6070L7900 6070L7900 6735L7900 7400L8688 7402L9475 7405L9478 7522L9481 7640L8693 7642L7905 7645L7902 8298L7900 8950L8665 8950L9430 8950L9430 8700L9430 8449L9548 8452L9665 8455L9668 8823L9670 9190L8500 9190L7330 9190L7330 9070z" stroke="none" fill="#FF0000" fill-rule="nonzero" />
	</g>
</g>
</svg>